<?xml version="1.0" encoding="utf-8"?>
<!-- Generator: Adobe Illustrator 24.0.0, SVG Export Plug-In . SVG Version: 6.00 Build 0)  -->
<svg version="1.1" id="fujisan" xmlns="http://www.w3.org/2000/svg" xmlns:xlink="http://www.w3.org/1999/xlink" x="0px" y="0px"
	 viewBox="0 0 2000 2000" style="enable-background:new 0 0 2000 2000;" xml:space="preserve">
<style type="text/css">
	.st0{fill:#325A8C;}
	.st1{fill:#EFEFEF;}
	.st2{clip-path:url(#SVGID_2_);}
	.st3{clip-path:url(#SVGID_4_);fill:#E0D9DF;}
	.st4{fill:url(#SVGID_5_);}
	.st5{fill:url(#SVGID_6_);}
	.st6{fill:url(#SVGID_7_);}
	.st7{fill:url(#SVGID_8_);}
	.st8{fill:url(#SVGID_9_);}
	.st9{fill:url(#SVGID_10_);}
	.st10{fill:url(#SVGID_11_);}
	.st11{fill:url(#SVGID_12_);}
</style>
<g id="图层_2">
	<path class="st0" d="M0,1258.08l38.17-20.55l22.27,4.67l30.22-22.42h75.55l354.67-153.22c184.47-98.85,355.67-204.23,510.54-317.65
		l44.06-1.82l46.6-1.92l10.59,17.62l32.09-0.73l224.51,181.17L1550.7,1046l33.4,4.67l85.09,51.39l58.85,29.9l110.54,7.47l15.11-1.87
		l25.45,4.67L2000,1258.08H0z"/>
	<path class="st1" d="M510.52,1072.67l3.44,4.31l45.6-23.78l5.56,3.3c-2.78,31.71-48.94,44.92-79.52,73.98
		c-4.81,8.47-3.04,12.74,15.02,6.61l98.99-53.5c2.91,10.58,9.18,17.15,24.47,13.01l-24.47,24.64l77.3-38.31v10.57l7.23,3.1
		l-14.46,16.05c13.79,0.49,42.74-17.41,82.86-48.88c23.25,4.1,35.19,30.76,39.48,72.66l20.58-9.25l3.34,6.61
		c34.27-38.2,68.92-77.37,91.2-84.55c10.83,4.13-16.62,34.55-49.49,68.7c-3.94,20.31,29.88-9.77,82.86-65.39
		c14.63-0.58,19.9,5.67,8.9,23.78c-23.08,18.91-37.79,37.24-41.71,54.82c24.59-3.51,57.3-16.42,96.21-36.53
		c43.09-11.85,95.2-20.28,103.44-45.38h91.2c13.28,17.92,27.98,32.37,46.71,36.99l-20.58-25.76c30.78,13.47,60.31,24.34,80.08,14.53
		c8.88,14.54,20.37,24.86,37.26,26.42c-42.26-46.9-76.42-98.96-105.11-120.22c40.36,23.9,78.16,52.4,105.11,100.4l8.34,0.66l0-8.59
		c8.11,8.24,16.55,15.59,28.36,13.87v-21.14c27.54,0.82,57.61,18.93,90.09,53.5c8.96-3.77,17.87-2.57,26.69,9.25l8.9-5.94
		l-3.34-31.05l17.8,3.96c-30.83-27.26-61.19-49.33-90.65-61.43l-99.54-99.74l87.31,72c30.81,8.74,53.88,26.9,67.85,56.15
		c24.66,15.71,48.04,29.15,63.4,28.4v15.19c12.61-9.21,25.73-7.65,39.48,7.27l17.8,3.3l-8.34-12.55
		c16.5,13.01,33.49,23.02,52.83,18.49c-2.51-9.1-0.82-16.75,13.85-19.87l-88.37-48.17l-20.58,0.66l-88.42-44.26l-82.02-68.35
		l-233.61-190.59l-19.66,0.93l-11.01-8.41l-89.67,3.74C878.5,862.74,701.7,969.64,510.52,1072.67z"/>
	<g>
		<defs>
			<path id="SVGID_1_" d="M510.52,1072.67l3.44,4.31l45.6-23.78l5.56,3.3c-2.78,31.71-48.94,44.92-79.52,73.98
				c-4.81,8.47-3.04,12.74,15.02,6.61l98.99-53.5c2.91,10.58,9.18,17.15,24.47,13.01l-24.47,24.64l77.3-38.31v10.57l7.23,3.1
				l-14.46,16.05c13.79,0.49,42.74-17.41,82.86-48.88c23.25,4.1,35.19,30.76,39.48,72.66l20.58-9.25l3.34,6.61
				c34.27-38.2,68.92-77.37,91.2-84.55c10.83,4.13-16.62,34.55-49.49,68.7c-3.94,20.31,29.88-9.77,82.86-65.39
				c14.63-0.58,19.9,5.67,8.9,23.78c-23.08,18.91-37.79,37.24-41.71,54.82c24.59-3.51,57.3-16.42,96.21-36.53
				c43.09-11.85,95.2-20.28,103.44-45.38h91.2c13.28,17.92,27.98,32.37,46.71,36.99l-20.58-25.76
				c30.78,13.47,60.31,24.34,80.08,14.53c8.88,14.54,20.37,24.86,37.26,26.42c-42.26-46.9-76.42-98.96-105.11-120.22
				c40.36,23.9,78.16,52.4,105.11,100.4l8.34,0.66l0-8.59c8.11,8.24,16.55,15.59,28.36,13.87v-21.14
				c27.54,0.82,57.61,18.93,90.09,53.5c8.96-3.77,17.87-2.57,26.69,9.25l8.9-5.94l-3.34-31.05l17.8,3.96
				c-30.83-27.26-61.19-49.33-90.65-61.43l-99.54-99.74l87.31,72c30.81,8.74,53.88,26.9,67.85,56.15
				c24.66,15.71,48.04,29.15,63.4,28.4v15.19c12.61-9.21,25.73-7.65,39.48,7.27l17.8,3.3l-8.34-12.55
				c16.5,13.01,33.49,23.02,52.83,18.49c-2.51-9.1-0.82-16.75,13.85-19.87l-88.37-48.17l-20.58,0.66l-88.42-44.26l-82.02-68.35
				l-233.61-190.59l-19.66,0.93l-11.01-8.41l-89.67,3.74C878.5,862.74,701.7,969.64,510.52,1072.67z"/>
		</defs>
		<clipPath id="SVGID_2_">
			<use xlink:href="#SVGID_1_"  style="overflow:visible;"/>
		</clipPath>
		<g class="st2">
			<defs>
				<path id="SVGID_3_" d="M1149.84,752.64l-53.29,26.78l-32.56,37.98l-5.33-12.66l-10.07,48.52l79.93,139.25l-10.66,54.85
					l84.67,10.55l46.18,36.57l249.86,42.2h152.17l17.17-29.54C1477.23,1055.57,1310.34,923.22,1149.84,752.64z"/>
			</defs>
			<use xlink:href="#SVGID_3_"  style="overflow:visible;fill:#E0D9DF;"/>
			<clipPath id="SVGID_4_">
				<use xlink:href="#SVGID_3_"  style="overflow:visible;"/>
			</clipPath>
			<path class="st3" d="M501.47,1068.19l3.44,4.31l45.6-23.78l5.56,3.3c-2.78,31.71-48.94,44.92-79.52,73.98
				c-4.81,8.47-3.04,12.74,15.02,6.61l98.99-53.5c2.91,10.58,9.18,17.15,24.47,13.01l-24.47,24.64l77.3-38.31v10.57l7.23,3.1
				l-14.46,16.05c13.79,0.49,42.74-17.41,82.86-48.88c23.25,4.1,35.19,30.76,39.48,72.66l20.58-9.25l3.34,6.61
				c34.27-38.2,68.92-77.37,91.2-84.55c10.83,4.13-16.62,34.55-49.49,68.7c-3.94,20.31,29.88-9.77,82.86-65.39
				c14.63-0.58,19.9,5.67,8.9,23.78c-23.08,18.91-37.79,37.24-41.71,54.82c24.59-3.51,57.3-16.42,96.21-36.53
				c43.09-11.85,95.2-20.28,103.44-45.38h91.2c13.28,17.92,27.98,32.37,46.71,36.99l-20.58-25.76
				c30.78,13.47,60.31,24.34,80.08,14.53c8.88,14.54,20.37,24.86,37.26,26.42c-42.26-46.9-76.42-98.96-105.11-120.22
				c40.36,23.9,78.16,52.4,105.11,100.4l8.34,0.66l0-8.59c8.11,8.24,16.55,15.59,28.36,13.87v-21.14
				c27.54,0.82,57.61,18.93,90.09,53.5c8.96-3.77,17.87-2.57,26.69,9.25l8.9-5.94l-3.34-31.05l17.8,3.96
				c-30.83-27.26-61.19-49.33-90.65-61.43l-99.54-99.74l87.31,72c30.81,8.74,53.88,26.9,67.85,56.15
				c24.66,15.71,48.04,29.15,63.4,28.4v15.19c12.61-9.21,25.73-7.65,39.48,7.27l17.8,3.3l-8.34-12.55
				c16.5,13.01,33.49,23.02,52.83,18.5c-2.51-9.1-0.82-16.75,13.85-19.87l-88.37-48.17l-20.58,0.66l-88.42-44.26l-82.02-68.35
				L1140.8,748.16l-19.66,0.93l-11.01-8.41l-89.67,3.74C869.46,858.26,692.66,965.16,501.47,1068.19z"/>
		</g>
	</g>
	<g>
		<linearGradient id="SVGID_5_" gradientUnits="userSpaceOnUse" x1="767.8608" y1="892.7198" x2="977.199" y2="892.7198">
			<stop  offset="0" style="stop-color:#325685"/>
			<stop  offset="0.1223" style="stop-color:#375987;stop-opacity:0.9022"/>
			<stop  offset="0.2569" style="stop-color:#46608D;stop-opacity:0.7945"/>
			<stop  offset="0.3973" style="stop-color:#5D6E97;stop-opacity:0.6821"/>
			<stop  offset="0.5419" style="stop-color:#7A84A7;stop-opacity:0.5665"/>
			<stop  offset="0.6895" style="stop-color:#9FA3BD;stop-opacity:0.4484"/>
			<stop  offset="0.8398" style="stop-color:#CACBDA;stop-opacity:0.3282"/>
			<stop  offset="0.9896" style="stop-color:#FCFCFD;stop-opacity:0.2084"/>
			<stop  offset="1" style="stop-color:#FFFFFF;stop-opacity:0.2"/>
		</linearGradient>
		<path class="st4" d="M865.12,898.36c-24.7,24.37-73.83,45.51-97.26,74.91c41.28-20.51,82.06-40.28,109.04-39.71
			c7.59,0.41-5.26,17.87-16.34,33.84c28.77-10.17,53.2-33.11,69.53-79.87l-31.15,13.54c11.2-32.89,60.41-59.12,78.26-88.9
			c-32.87,16.1-65,32.53-75.22,58.66c-9.99,22.39-21.27,38.39-34.95,42.42l-13.3,7.67C863.4,910.26,871.64,900.36,865.12,898.36z"/>
		<linearGradient id="SVGID_6_" gradientUnits="userSpaceOnUse" x1="927.3409" y1="978.181" x2="978.851" y2="978.181">
			<stop  offset="0" style="stop-color:#325685"/>
			<stop  offset="0.1223" style="stop-color:#375987;stop-opacity:0.9022"/>
			<stop  offset="0.2569" style="stop-color:#46608D;stop-opacity:0.7945"/>
			<stop  offset="0.3973" style="stop-color:#5D6E97;stop-opacity:0.6821"/>
			<stop  offset="0.5419" style="stop-color:#7A84A7;stop-opacity:0.5665"/>
			<stop  offset="0.6895" style="stop-color:#9FA3BD;stop-opacity:0.4484"/>
			<stop  offset="0.8398" style="stop-color:#CACBDA;stop-opacity:0.3282"/>
			<stop  offset="0.9896" style="stop-color:#FCFCFD;stop-opacity:0.2084"/>
			<stop  offset="1" style="stop-color:#FFFFFF;stop-opacity:0.2"/>
		</linearGradient>
		<path class="st5" d="M977.2,919.62c-10.09,12.51-15.71,25.02-16.87,37.53c-22.82,23.12-37.75,48.01-31.6,77.65
			c15.55,5.59,32.06-0.29,50.12-25.02l-1.65-10.35c-9.07,13.86-18.37,19.74-27.77,22.43c-12.97-7.98-4.65-29.61,15.25-58.67
			C974.25,951.03,979.07,936.78,977.2,919.62z"/>
		<linearGradient id="SVGID_7_" gradientUnits="userSpaceOnUse" x1="1038.0204" y1="894.5831" x2="1146.9578" y2="894.5831">
			<stop  offset="0" style="stop-color:#325685"/>
			<stop  offset="0.1223" style="stop-color:#375987;stop-opacity:0.9022"/>
			<stop  offset="0.2569" style="stop-color:#46608D;stop-opacity:0.7945"/>
			<stop  offset="0.3973" style="stop-color:#5D6E97;stop-opacity:0.6821"/>
			<stop  offset="0.5419" style="stop-color:#7A84A7;stop-opacity:0.5665"/>
			<stop  offset="0.6895" style="stop-color:#9FA3BD;stop-opacity:0.4484"/>
			<stop  offset="0.8398" style="stop-color:#CACBDA;stop-opacity:0.3282"/>
			<stop  offset="0.9896" style="stop-color:#FCFCFD;stop-opacity:0.2084"/>
			<stop  offset="1" style="stop-color:#FFFFFF;stop-opacity:0.2"/>
		</linearGradient>
		<polygon class="st6" points="1057.5,801.82 1054.97,839.96 1038.02,839.96 1066.16,887.09 1056.42,904.22 1083.47,906.79 
			1079.5,913.65 1071.21,915.79 1071.93,919.62 1079.5,917.08 1089.96,909.36 1099.34,913.65 1122.79,958.21 1125.68,987.34 
			1131.45,987.34 1131.45,963.35 1146.96,963.35 1127.12,947.5 1113.41,921.79 1113.77,909.79 1101.15,899.08 1066.88,860.95 
			1068.68,845.95 		"/>
		<linearGradient id="SVGID_8_" gradientUnits="userSpaceOnUse" x1="1098.2606" y1="937.2141" x2="1216.9374" y2="937.2141">
			<stop  offset="0" style="stop-color:#325685"/>
			<stop  offset="0.1223" style="stop-color:#375987;stop-opacity:0.9022"/>
			<stop  offset="0.2569" style="stop-color:#46608D;stop-opacity:0.7945"/>
			<stop  offset="0.3973" style="stop-color:#5D6E97;stop-opacity:0.6821"/>
			<stop  offset="0.5419" style="stop-color:#7A84A7;stop-opacity:0.5665"/>
			<stop  offset="0.6895" style="stop-color:#9FA3BD;stop-opacity:0.4484"/>
			<stop  offset="0.8398" style="stop-color:#CACBDA;stop-opacity:0.3282"/>
			<stop  offset="0.9896" style="stop-color:#FCFCFD;stop-opacity:0.2084"/>
			<stop  offset="1" style="stop-color:#FFFFFF;stop-opacity:0.2"/>
		</linearGradient>
		<polygon class="st7" points="1098.26,857.95 1110.16,872.09 1110.16,860.52 1155.98,926.93 1163.55,959.49 1216.94,1016.48 
			1157.6,963.35 1155.25,943.21 1112.69,881.09 		"/>
		<linearGradient id="SVGID_9_" gradientUnits="userSpaceOnUse" x1="1129.6432" y1="1013.0502" x2="1193.1299" y2="1013.0502">
			<stop  offset="0" style="stop-color:#325685"/>
			<stop  offset="0.1223" style="stop-color:#375987;stop-opacity:0.9022"/>
			<stop  offset="0.2569" style="stop-color:#46608D;stop-opacity:0.7945"/>
			<stop  offset="0.3973" style="stop-color:#5D6E97;stop-opacity:0.6821"/>
			<stop  offset="0.5419" style="stop-color:#7A84A7;stop-opacity:0.5665"/>
			<stop  offset="0.6895" style="stop-color:#9FA3BD;stop-opacity:0.4484"/>
			<stop  offset="0.8398" style="stop-color:#CACBDA;stop-opacity:0.3282"/>
			<stop  offset="0.9896" style="stop-color:#FCFCFD;stop-opacity:0.2084"/>
			<stop  offset="1" style="stop-color:#FFFFFF;stop-opacity:0.2"/>
		</linearGradient>
		<polygon class="st8" points="1145.15,1027.19 1129.64,1004.91 1137.4,1043.04 1150.2,1031.9 1167.52,1046.04 1171.13,1023.33 
			1193.13,1041.33 1149.12,980.06 1165.35,1013.05 1140.83,987.34 1149.48,1025.9 		"/>
		<linearGradient id="SVGID_10_" gradientUnits="userSpaceOnUse" x1="1152.7292" y1="969.3481" x2="1300.9851" y2="969.3481">
			<stop  offset="0" style="stop-color:#325685"/>
			<stop  offset="0.1223" style="stop-color:#375987;stop-opacity:0.9022"/>
			<stop  offset="0.2569" style="stop-color:#46608D;stop-opacity:0.7945"/>
			<stop  offset="0.3973" style="stop-color:#5D6E97;stop-opacity:0.6821"/>
			<stop  offset="0.5419" style="stop-color:#7A84A7;stop-opacity:0.5665"/>
			<stop  offset="0.6895" style="stop-color:#9FA3BD;stop-opacity:0.4484"/>
			<stop  offset="0.8398" style="stop-color:#CACBDA;stop-opacity:0.3282"/>
			<stop  offset="0.9896" style="stop-color:#FCFCFD;stop-opacity:0.2084"/>
			<stop  offset="1" style="stop-color:#FFFFFF;stop-opacity:0.2"/>
		</linearGradient>
		<path class="st9" d="M1187.36,1001.91l27.41,23.99l2.16-9.43v-9.43l-52.3-65.12l19.84,17.14l2.16-17.14l-25.25-29.13l4.33-13.71
			l-12.99-28.71l38.24,45.84l-9.38,1.29l3.25,12l10.82,16.71l1.08,18.42c26.14,37.43,61.36,70.93,104.25,101.11l-20.92,2.57
			l-29.58-22.28l-28.5-5.14L1187.36,1001.91z"/>
		<linearGradient id="SVGID_11_" gradientUnits="userSpaceOnUse" x1="1196.0156" y1="930.1447" x2="1232.0876" y2="930.1447">
			<stop  offset="0" style="stop-color:#325685"/>
			<stop  offset="0.1223" style="stop-color:#375987;stop-opacity:0.9022"/>
			<stop  offset="0.2569" style="stop-color:#46608D;stop-opacity:0.7945"/>
			<stop  offset="0.3973" style="stop-color:#5D6E97;stop-opacity:0.6821"/>
			<stop  offset="0.5419" style="stop-color:#7A84A7;stop-opacity:0.5665"/>
			<stop  offset="0.6895" style="stop-color:#9FA3BD;stop-opacity:0.4484"/>
			<stop  offset="0.8398" style="stop-color:#CACBDA;stop-opacity:0.3282"/>
			<stop  offset="0.9896" style="stop-color:#FCFCFD;stop-opacity:0.2084"/>
			<stop  offset="1" style="stop-color:#FFFFFF;stop-opacity:0.2"/>
		</linearGradient>
		<polygon class="st10" points="1196.02,906.37 1232.09,947.5 1216.94,939.36 1218.74,953.92 		"/>
		<linearGradient id="SVGID_12_" gradientUnits="userSpaceOnUse" x1="1149.4651" y1="910.1805" x2="1434.2609" y2="910.1805">
			<stop  offset="0" style="stop-color:#325685"/>
			<stop  offset="0.1223" style="stop-color:#375987;stop-opacity:0.9022"/>
			<stop  offset="0.2569" style="stop-color:#46608D;stop-opacity:0.7945"/>
			<stop  offset="0.3973" style="stop-color:#5D6E97;stop-opacity:0.6821"/>
			<stop  offset="0.5419" style="stop-color:#7A84A7;stop-opacity:0.5665"/>
			<stop  offset="0.6895" style="stop-color:#9FA3BD;stop-opacity:0.4484"/>
			<stop  offset="0.8398" style="stop-color:#CACBDA;stop-opacity:0.3282"/>
			<stop  offset="0.9896" style="stop-color:#FCFCFD;stop-opacity:0.2084"/>
			<stop  offset="1" style="stop-color:#FFFFFF;stop-opacity:0.2"/>
		</linearGradient>
		<polygon class="st11" points="1149.47,774.32 1216.94,845.23 1235.1,842.9 1284.52,898.7 1289.91,919.62 1434.26,1046.04 
			1298.71,937.21 1229.72,860.92 1216.94,864.99 		"/>
	</g>
</g>
</svg>
